<?xml version="1.0" ?><!DOCTYPE svg  PUBLIC '-//W3C//DTD SVG 1.1//EN'  'http://www.w3.org/Graphics/SVG/1.1/DTD/svg11.dtd'><svg id="Layer_1" style="enable-background:new 0 0 75 75;" version="1.1" viewBox="0 0 75 75" xml:space="preserve" xmlns="http://www.w3.org/2000/svg" xmlns:xlink="http://www.w3.org/1999/xlink"><style type="text/css">
	.st0{fill:#EC008C;}
	.st1{fill:#FFFFFF;}
	.st2{fill:#00AAAD;}
	.st3{fill:#F9A01B;}
	.st4{fill:#B2D235;}
</style><g><g><g><g><path class="st2" d="M62.5,73.5h-50c-6.1,0-11-4.9-11-11v-50c0-6.1,4.9-11,11-11h50c6.1,0,11,4.9,11,11v50      C73.5,68.6,68.6,73.5,62.5,73.5z"/></g></g></g><g><path class="st1" d="M51.2,23.8c-5.1-5.1-13.3-5.1-18.4,0c-4.5,4.5-5,11.4-1.6,16.4L20.7,50.7c-1,1-1,2.5,0,3.5c1,1,2.6,1,3.5,0    l10.5-10.5c5,3.4,12,2.9,16.4-1.6C56.3,37.1,56.3,28.9,51.2,23.8z M34.3,40.7c-4.2-4.2-4.2-11.1,0-15.4s11.1-4.2,15.4,0    c4.2,4.2,4.2,11.1,0,15.4S38.6,44.9,34.3,40.7z"/><path class="st1" d="M47.6,27.4l-1.5,1.5c2.2,2.2,2.2,5.9,0,8.1l1.5,1.5C50.6,35.5,50.6,30.5,47.6,27.4z"/></g></g></svg>